<svg width="21" height="24" viewBox="0 0 21 24" fill="none" xmlns="http://www.w3.org/2000/svg">
<g clip-path="url(#clip0_280_1752)">
<path d="M15.7967 3.79693C16.2373 3.3563 16.2373 2.6438 15.7967 2.20786C15.3561 1.77193 14.6436 1.76724 14.2076 2.20786L7.50449 8.91099L4.54668 5.95318C4.10606 5.51255 3.39356 5.51255 2.95762 5.95318C2.52168 6.3938 2.51699 7.1063 2.95762 7.54224L6.70762 11.2922C7.14824 11.7329 7.86074 11.7329 8.29668 11.2922L15.7967 3.79693ZM20.6717 9.42193C21.1123 8.9813 21.1123 8.2688 20.6717 7.83286C20.2311 7.39693 19.5186 7.39224 19.0826 7.83286L7.50449 19.411L1.92168 13.8282C1.48106 13.3876 0.768557 13.3876 0.332619 13.8282C-0.103318 14.2688 -0.108005 14.9813 0.332619 15.4172L6.70293 21.7969C7.14356 22.2375 7.85606 22.2375 8.29199 21.7969L20.6717 9.42193Z" fill="black"/>
</g>
<defs>
<clipPath id="clip0_280_1752">
<rect width="21" height="24" fill="white"/>
</clipPath>
</defs>
</svg>
