<svg width="80" height="80" viewBox="0 0 80 80" fill="none" xmlns="http://www.w3.org/2000/svg">
<rect x="0.5" y="0.5" width="79" height="79" rx="15.5" fill="#F7F7F7"/>
<rect x="0.5" y="0.5" width="79" height="79" rx="15.5" stroke="#E7002B" stroke-linecap="round" stroke-dasharray="7 7"/>
<path d="M53 28.5C53 25.0522 51.6304 21.7456 49.1924 19.3076C46.7544 16.8696 43.4478 15.5 40 15.5C36.5522 15.5 33.2456 16.8696 30.8076 19.3076C28.3696 21.7456 27 25.0522 27 28.5C27 31.9478 28.3696 35.2544 30.8076 37.6924C33.2456 40.1304 36.5522 41.5 40 41.5C43.4478 41.5 46.7544 40.1304 49.1924 37.6924C51.6304 35.2544 53 31.9478 53 28.5ZM24 28.5C24 24.2565 25.6857 20.1869 28.6863 17.1863C31.6869 14.1857 35.7565 12.5 40 12.5C44.2435 12.5 48.3131 14.1857 51.3137 17.1863C54.3143 20.1869 56 24.2565 56 28.5C56 32.7435 54.3143 36.8131 51.3137 39.8137C48.3131 42.8143 44.2435 44.5 40 44.5C35.7565 44.5 31.6869 42.8143 28.6863 39.8137C25.6857 36.8131 24 32.7435 24 28.5ZM36.25 22.5L36.6375 21.475C36.8562 20.8875 37.4187 20.5 38.0437 20.5H41.9625C42.5875 20.5 43.15 20.8875 43.3687 21.475L43.75 22.5H46C47.1063 22.5 48 23.3938 48 24.5V32.5C48 33.6063 47.1063 34.5 46 34.5H34C32.8938 34.5 32 33.6063 32 32.5V24.5C32 23.3938 32.8938 22.5 34 22.5H36.25ZM43 28.5C43 27.7044 42.6839 26.9413 42.1213 26.3787C41.5587 25.8161 40.7956 25.5 40 25.5C39.2044 25.5 38.4413 25.8161 37.8787 26.3787C37.3161 26.9413 37 27.7044 37 28.5C37 29.2956 37.3161 30.0587 37.8787 30.6213C38.4413 31.1839 39.2044 31.5 40 31.5C40.7956 31.5 41.5587 31.1839 42.1213 30.6213C42.6839 30.0587 43 29.2956 43 28.5Z" fill="#E7002B"/>
<path d="M24.5385 51.5385C24.5385 51.2423 24.2962 51 24 51C23.7038 51 23.4615 51.2423 23.4615 51.5385V57.4615H17.5385C17.2423 57.4615 17 57.7038 17 58C17 58.2962 17.2423 58.5385 17.5385 58.5385H23.4615V64.4615C23.4615 64.7577 23.7038 65 24 65C24.2962 65 24.5385 64.7577 24.5385 64.4615V58.5385H30.4615C30.7577 58.5385 31 58.2962 31 58C31 57.7038 30.7577 57.4615 30.4615 57.4615H24.5385V51.5385Z" fill="#E7002B"/>
<path d="M50.9665 60.4774V61.5H50.8621C50.6778 61.5 50.4952 61.4757 50.3143 61.427C50.1369 61.3783 49.9665 61.307 49.803 61.213C49.643 61.1191 49.4951 61.0061 49.3595 60.8739C49.2273 60.7383 49.1178 60.5852 49.0308 60.4148C48.9612 60.5783 48.8743 60.7261 48.7699 60.8583C48.6691 60.9904 48.5525 61.1052 48.4204 61.2026C48.2882 61.3 48.1421 61.3748 47.9821 61.427C47.8256 61.4791 47.6586 61.5052 47.4812 61.5052C47.3873 61.5052 47.2847 61.4896 47.1734 61.4583C47.0621 61.427 46.9508 61.3817 46.8395 61.3226C46.7317 61.2635 46.6273 61.1922 46.5265 61.1087C46.4291 61.0217 46.3438 60.9226 46.2708 60.8113C46.0621 61.0548 45.8256 61.2322 45.5612 61.3435C45.3004 61.4513 45.0221 61.5052 44.7265 61.5052C44.6047 61.5052 44.4969 61.5 44.403 61.4896C44.3125 61.4757 44.2273 61.4565 44.1473 61.4322C44.0673 61.4043 43.9908 61.3713 43.9178 61.333C43.8447 61.2913 43.7699 61.2426 43.6934 61.187C43.6934 61.8757 43.5978 62.4548 43.4065 62.9243C43.2186 63.3939 42.9543 63.7748 42.6134 64.067C42.276 64.3626 41.8725 64.5783 41.403 64.7139C40.9334 64.853 40.4204 64.9348 39.8638 64.9591H39.6604C39.2325 64.9591 38.8343 64.8983 38.4656 64.7765C38.0969 64.6548 37.7682 64.4774 37.4795 64.2443C37.1943 64.0113 36.9578 63.7278 36.7699 63.3939C36.5856 63.0635 36.4621 62.6861 36.3995 62.2617C36.3682 62.0426 36.3525 61.8252 36.3525 61.6096C36.3525 61.4774 36.363 61.293 36.3838 61.0565C36.4047 60.8165 36.4586 60.5348 36.5456 60.2113C36.636 59.8843 36.7456 59.5765 36.8743 59.2878C37.0065 58.9991 37.1438 58.7365 37.2865 58.5L38.116 59.1157C38.0708 59.1748 38.0169 59.2635 37.9543 59.3817C37.8951 59.4965 37.8343 59.6322 37.7717 59.7887C37.7125 59.9452 37.6551 60.1174 37.5995 60.3052C37.5473 60.493 37.5021 60.6896 37.4638 60.8948C37.4291 61.0965 37.4065 61.3 37.396 61.5052C37.3925 61.5609 37.3908 61.6183 37.3908 61.6774C37.3908 61.827 37.4012 61.973 37.4221 62.1157C37.436 62.2061 37.4586 62.3139 37.4899 62.4391C37.5247 62.5643 37.5751 62.693 37.6412 62.8252C37.7108 62.9609 37.7978 63.093 37.9021 63.2217C38.0099 63.3539 38.1438 63.4704 38.3038 63.5713C38.4638 63.6757 38.6534 63.7591 38.8725 63.8217C39.0917 63.8878 39.3491 63.9209 39.6447 63.9209H39.8221C41.3004 63.8513 42.1978 63.333 42.5143 62.3661C42.6151 62.0252 42.6743 61.693 42.6917 61.3696C42.6951 61.293 42.6969 61.2183 42.6969 61.1452C42.6969 60.9017 42.676 60.6426 42.6343 60.3678C42.5925 60.093 42.5247 59.8061 42.4308 59.507C42.3404 59.2043 42.2378 58.9035 42.123 58.6043L42.9891 58.0409C43.0204 58.1278 43.0482 58.2061 43.0725 58.2757C43.1004 58.3452 43.1369 58.4357 43.1821 58.547C43.2656 58.7661 43.3456 58.9904 43.4221 59.22C43.5021 59.4461 43.596 59.653 43.7038 59.8409C43.8117 60.0252 43.9421 60.1765 44.0951 60.2948C44.2517 60.4096 44.4499 60.467 44.6899 60.467C44.8743 60.467 45.0273 60.4339 45.1491 60.3678C45.2743 60.2983 45.3769 60.2061 45.4569 60.0913C45.5369 59.9765 45.596 59.8426 45.6343 59.6896C45.676 59.533 45.7073 59.3678 45.7282 59.1939C45.7491 59.02 45.7612 58.8409 45.7647 58.6565C45.7717 58.4722 45.7786 58.2913 45.7856 58.1139L46.8447 58.1922C46.8412 58.3243 46.836 58.4722 46.8291 58.6357C46.8256 58.747 46.8238 58.8583 46.8238 58.9696C46.8238 59.0287 46.8238 59.1157 46.8238 59.2304C46.8238 59.3417 46.8343 59.4791 46.8551 59.6426C46.876 59.8026 46.9108 59.947 46.9595 60.0757C47.0117 60.2009 47.0812 60.3017 47.1682 60.3783C47.2551 60.4548 47.3665 60.493 47.5021 60.493C47.6865 60.493 47.836 60.4409 47.9508 60.3365C48.0656 60.2322 48.1543 60.0983 48.2169 59.9348C48.2795 59.7678 48.3212 59.5817 48.3421 59.3765C48.363 59.1713 48.3734 58.9661 48.3734 58.7609C48.3734 58.5557 48.3647 58.3626 48.3473 58.1817C48.3334 58.0009 48.323 57.8513 48.316 57.733L49.3386 57.66C49.3456 57.8374 49.3612 58.0304 49.3856 58.2391C49.4099 58.4443 49.4447 58.6513 49.4899 58.86C49.5386 59.0687 49.5995 59.2704 49.6725 59.4652C49.7491 59.66 49.843 59.8322 49.9543 59.9817C50.0656 60.1313 50.1943 60.2513 50.3404 60.3417C50.4899 60.4322 50.6638 60.4774 50.8621 60.4774H50.9665ZM50.755 60.4774H52.5759C52.715 60.4774 52.8542 60.4496 52.9933 60.3939C53.1359 60.3383 53.2629 60.2635 53.3742 60.1696C53.4889 60.0757 53.5829 59.9696 53.6559 59.8513C53.7324 59.7296 53.7759 59.6061 53.7863 59.4809C53.7898 59.4391 53.7915 59.3974 53.7915 59.3557C53.7915 59.1957 53.7602 59.0183 53.6976 58.8235C53.6385 58.6287 53.5463 58.42 53.4211 58.1974C53.2959 57.9748 53.1498 57.7557 52.9829 57.54C52.8159 57.3209 52.6402 57.1139 52.4559 56.9191C52.275 56.7209 52.0924 56.5383 51.9081 56.3713C51.7237 56.2043 51.5533 56.06 51.3968 55.9383L51.5324 54.7852L56.1446 52.7974L56.5463 53.747L52.4089 55.4843C52.6698 55.6965 52.9011 55.9104 53.1029 56.1261C53.3046 56.3383 53.4855 56.5522 53.6455 56.7678C53.8055 56.9835 53.9481 57.1991 54.0733 57.4148C54.202 57.6304 54.3237 57.8461 54.4385 58.0617C54.5568 58.2774 54.6733 58.4948 54.7881 58.7139C54.9029 58.933 55.0263 59.1539 55.1585 59.3765C55.2594 59.5435 55.3655 59.6948 55.4768 59.8304C55.5915 59.9626 55.7168 60.0757 55.8524 60.1696C55.9881 60.2635 56.1359 60.3383 56.2959 60.3939C56.4594 60.4461 56.6385 60.4739 56.8333 60.4774H57.162V61.5H57.0107C56.7602 61.5 56.5394 61.4843 56.3481 61.453C56.1602 61.4217 55.9759 61.3765 55.795 61.3174C55.5446 61.227 55.315 61.0948 55.1063 60.9209C54.9011 60.747 54.7202 60.5591 54.5637 60.3574C54.4489 60.5765 54.2994 60.7713 54.115 60.9417C54.0002 61.0426 53.8785 61.1278 53.7498 61.1974C53.6246 61.267 53.4942 61.3226 53.3585 61.3643C53.2229 61.4061 53.0837 61.4374 52.9411 61.4583C52.7985 61.4791 52.6542 61.493 52.5081 61.5H50.755V60.4774ZM61.629 58.3487C61.5212 58.2513 61.4151 58.1609 61.3108 58.0774C61.2064 57.9904 61.0934 57.9157 60.9716 57.853C60.8534 57.787 60.7229 57.7365 60.5803 57.7017C60.4377 57.6635 60.2777 57.6443 60.1003 57.6443C59.8986 57.6443 59.7212 57.6791 59.5682 57.7487C59.4151 57.8148 59.2864 57.9052 59.1821 58.02C59.0812 58.1348 59.0047 58.267 58.9525 58.4165C58.9003 58.5626 58.8742 58.7157 58.8742 58.8757C58.8742 59.0948 58.9229 59.293 59.0203 59.4704C59.1177 59.6478 59.2464 59.7991 59.4064 59.9243C59.5699 60.0496 59.7577 60.1435 59.9699 60.2061C60.1438 60.2583 60.3247 60.2843 60.5125 60.2843C60.5542 60.2843 60.596 60.2826 60.6377 60.2791C60.7977 60.2687 60.9438 60.2565 61.076 60.2426C61.2116 60.2287 61.3403 60.213 61.4621 60.1957C61.5873 60.1783 61.709 60.1574 61.8273 60.133C61.949 60.1087 62.0777 60.0826 62.2134 60.0548L62.3386 61.0461C62.1438 61.0983 61.9212 61.1504 61.6708 61.2026C61.4238 61.2548 61.1334 61.3035 60.7995 61.3487C60.469 61.3904 60.0899 61.4252 59.6621 61.453C59.2342 61.4774 58.7456 61.4896 58.196 61.4896L56.9542 61.5V60.4774L58.5403 60.4617C58.2864 60.2322 58.1073 59.9887 58.0029 59.7313C57.9021 59.4739 57.8516 59.1887 57.8516 58.8757C57.8516 58.5696 57.9073 58.2809 58.0186 58.0096C58.1334 57.7348 58.2916 57.4948 58.4934 57.2896C58.6951 57.0843 58.9316 56.9226 59.2029 56.8043C59.4777 56.6826 59.7769 56.6217 60.1003 56.6217C60.3473 56.6217 60.5699 56.6461 60.7682 56.6948C60.9664 56.7435 61.1508 56.8113 61.3212 56.8983C61.4916 56.9817 61.6534 57.0809 61.8064 57.1957C61.9595 57.3104 62.1142 57.4322 62.2708 57.5609L61.629 58.3487Z" fill="#E7002B"/>
</svg>
