<svg width="18" height="24" viewBox="0 0 18 24" fill="none" xmlns="http://www.w3.org/2000/svg">
<g clip-path="url(#clip0_280_1744)">
<path d="M15 3H13.125H12.675C12.3281 1.28906 10.8141 0 9 0C7.18594 0 5.67188 1.28906 5.325 3H4.875H3C1.34531 3 0 4.34531 0 6V21C0 22.6547 1.34531 24 3 24H15C16.6547 24 18 22.6547 18 21V6C18 4.34531 16.6547 3 15 3ZM3.75 5.25V6.375C3.75 6.99844 4.25156 7.5 4.875 7.5H9H13.125C13.7484 7.5 14.25 6.99844 14.25 6.375V5.25H15C15.4125 5.25 15.75 5.5875 15.75 6V21C15.75 21.4125 15.4125 21.75 15 21.75H3C2.5875 21.75 2.25 21.4125 2.25 21V6C2.25 5.5875 2.5875 5.25 3 5.25H3.75ZM7.875 3.75C7.875 3.45163 7.99353 3.16548 8.2045 2.9545C8.41548 2.74353 8.70163 2.625 9 2.625C9.29837 2.625 9.58452 2.74353 9.7955 2.9545C10.0065 3.16548 10.125 3.45163 10.125 3.75C10.125 4.04837 10.0065 4.33452 9.7955 4.5455C9.58452 4.75647 9.29837 4.875 9 4.875C8.70163 4.875 8.41548 4.75647 8.2045 4.5455C7.99353 4.33452 7.875 4.04837 7.875 3.75ZM6.375 12.75C6.375 12.6023 6.3459 12.456 6.28936 12.3195C6.23283 12.183 6.14996 12.059 6.0455 11.9545C5.94103 11.85 5.81701 11.7672 5.68052 11.7106C5.54403 11.6541 5.39774 11.625 5.25 11.625C5.10226 11.625 4.95597 11.6541 4.81948 11.7106C4.68299 11.7672 4.55897 11.85 4.4545 11.9545C4.35004 12.059 4.26717 12.183 4.21064 12.3195C4.1541 12.456 4.125 12.6023 4.125 12.75C4.125 12.8977 4.1541 13.044 4.21064 13.1805C4.26717 13.317 4.35004 13.441 4.4545 13.5455C4.55897 13.65 4.68299 13.7328 4.81948 13.7894C4.95597 13.8459 5.10226 13.875 5.25 13.875C5.39774 13.875 5.54403 13.8459 5.68052 13.7894C5.81701 13.7328 5.94103 13.65 6.0455 13.5455C6.14996 13.441 6.23283 13.317 6.28936 13.1805C6.3459 13.044 6.375 12.8977 6.375 12.75ZM8.25 12C7.8375 12 7.5 12.3375 7.5 12.75C7.5 13.1625 7.8375 13.5 8.25 13.5H12.75C13.1625 13.5 13.5 13.1625 13.5 12.75C13.5 12.3375 13.1625 12 12.75 12H8.25ZM8.25 16.5C7.8375 16.5 7.5 16.8375 7.5 17.25C7.5 17.6625 7.8375 18 8.25 18H12.75C13.1625 18 13.5 17.6625 13.5 17.25C13.5 16.8375 13.1625 16.5 12.75 16.5H8.25ZM5.25 18.375C5.54837 18.375 5.83452 18.2565 6.0455 18.0455C6.25647 17.8345 6.375 17.5484 6.375 17.25C6.375 16.9516 6.25647 16.6655 6.0455 16.4545C5.83452 16.2435 5.54837 16.125 5.25 16.125C4.95163 16.125 4.66548 16.2435 4.4545 16.4545C4.24353 16.6655 4.125 16.9516 4.125 17.25C4.125 17.5484 4.24353 17.8345 4.4545 18.0455C4.66548 18.2565 4.95163 18.375 5.25 18.375Z" fill="#212121"/>
</g>
<defs>
<clipPath id="clip0_280_1744">
<rect width="18" height="24" fill="white"/>
</clipPath>
</defs>
</svg>
