<svg width="24" height="24" viewBox="0 0 24 24" fill="none" xmlns="http://www.w3.org/2000/svg">
<path d="M11.3523 0.267188C11.7273 -0.0890625 12.2731 -0.0890625 12.6481 0.267188L23.6481 10.7672C24.069 11.1703 24.1231 11.8781 23.7648 12.3516C23.4065 12.825 22.7773 12.8812 22.3565 12.4828L21.3315 11.5078V20.25C21.3315 22.3219 19.8398 24 17.9981 24H5.99815C4.15648 24 2.66481 22.3219 2.66481 20.25V11.5078L1.64398 12.4828C1.22315 12.8859 0.589813 12.825 0.235647 12.3516C-0.11852 11.8781 -0.0685199 11.1656 0.352313 10.7672L11.3523 0.267188ZM11.9981 2.60156L4.66481 9.6V20.25C4.66481 21.0797 5.26065 21.75 5.99815 21.75H7.99815V14.625C7.99815 13.5891 8.74398 12.75 9.66481 12.75H14.3315C15.2523 12.75 15.9981 13.5891 15.9981 14.625V21.75H17.9981C18.7356 21.75 19.3315 21.0797 19.3315 20.25V9.6L11.9981 2.60156ZM9.99815 21.75H13.9981V15H9.99815V21.75Z" fill="black"/>
</svg>
