<svg width="24" height="24" viewBox="0 0 24 24" fill="none" xmlns="http://www.w3.org/2000/svg">
<path d="M13.3846 1.38462C13.3846 0.617308 12.7673 0 12 0C11.2327 0 10.6154 0.617308 10.6154 1.38462V10.6154H1.38462C0.617308 10.6154 0 11.2327 0 12C0 12.7673 0.617308 13.3846 1.38462 13.3846H10.6154V22.6154C10.6154 23.3827 11.2327 24 12 24C12.7673 24 13.3846 23.3827 13.3846 22.6154V13.3846H22.6154C23.3827 13.3846 24 12.7673 24 12C24 11.2327 23.3827 10.6154 22.6154 10.6154H13.3846V1.38462Z" fill="#333333"/>
</svg>
