<svg width="27" height="24" viewBox="0 0 27 24" fill="none" xmlns="http://www.w3.org/2000/svg">
<path d="M6.75 3.75V16.875H20.25V3.75H6.75ZM4.5 16.875V3.75C4.5 2.50781 5.50781 1.5 6.75 1.5H20.25C21.4922 1.5 22.5 2.50781 22.5 3.75V16.875C23.1234 16.875 23.625 17.3766 23.625 18C23.625 18.6234 23.1234 19.125 22.5 19.125H20.25H6.75H4.5C3.87656 19.125 3.375 18.6234 3.375 18C3.375 17.3766 3.87656 16.875 4.5 16.875ZM3 13.5V15.75H2.25V20.25H24.75V15.75H24V13.5H24.75C25.9922 13.5 27 14.5078 27 15.75V20.25C27 21.4922 25.9922 22.5 24.75 22.5H2.25C1.00781 22.5 0 21.4922 0 20.25V15.75C0 14.5078 1.00781 13.5 2.25 13.5H3ZM9.70312 6.32812C10.1438 5.8875 10.8562 5.8875 11.2922 6.32812L13.4953 8.53125L15.6984 6.32812C16.1391 5.8875 16.8516 5.8875 17.2875 6.32812C17.7234 6.76875 17.7281 7.48125 17.2875 7.91719L15.0844 10.1203L17.2875 12.3234C17.7281 12.7641 17.7281 13.4766 17.2875 13.9125C16.8469 14.3484 16.1344 14.3531 15.6984 13.9125L13.4953 11.7094L11.2922 13.9125C10.8516 14.3531 10.1391 14.3531 9.70312 13.9125C9.26719 13.4719 9.2625 12.7594 9.70312 12.3234L11.9062 10.1203L9.70312 7.91719C9.2625 7.47656 9.2625 6.76406 9.70312 6.32812Z" fill="black"/>
</svg>
